# xmcd
#
# Track frame offsets:
#	150
#	8746
#	23329
#	37327
#	51769
#	64546
#	77954
#	91827
#	106474
#	119812
#	133540
#	149751
#	163560
#	177222
#	190725
#
# Disc length: 2984 seconds
#
# Revision: 2
# Processed by: cddbd v1.5.1PL0 Copyright (c) Steve Scherf et al.
# Submitted via: audiograbber 1.83.01
#
DISCID=ca0ba60f
DTITLE=Various Artist - Toast To Big Bands
DYEAR=2001
DGENRE=Big Band
TTITLE0=Duke Ellington - Perdido
TTITLE1=Cab Calloway - Minnie The Moocher
TTITLE2=Harry James - Yes, Indeed
TTITLE3=Woody Herman - At The Woodchopper's Ball
TTITLE4=Earl Hine Quartet - Maple Leaf Rag
TTITLE5=Tommy Dorsey - Taking A Chance On Love
TTITLE6=Lionel Hampton - California Here I Come
TTITLE7=Artie Shaw - Begin The Beguine
TTITLE8=Benny Goodman - King Porter Stomp
TTITLE9=Gene Krupa - Drummin' Man
TTITLE10=Glenn Miller - In The Mood
TTITLE11=Duke Ellington - Drop Me Off In Harlem
TTITLE12=Count Basie - Honeysuckle Rose
TTITLE13=Harry James - All Or Nothing At All
TTITLE14=Woody Herman - Caldonia
EXTD=YEAR: 2001
EXTT0=
EXTT1=
EXTT2=
EXTT3=
EXTT4=
EXTT5=
EXTT6=
EXTT7=
EXTT8=
EXTT9=
EXTT10=
EXTT11=
EXTT12=
EXTT13=
EXTT14=
PLAYORDER=
